<?xml version="1.0" standalone="no"?>
<!DOCTYPE svg PUBLIC "-//W3C//DTD SVG 20010904//EN"
 "http://www.w3.org/TR/2001/REC-SVG-20010904/DTD/svg10.dtd">
<svg version="1.0" xmlns="http://www.w3.org/2000/svg"
 width="450.000000pt" height="450.000000pt" viewBox="0 0 450.000000 450.000000"
 preserveAspectRatio="xMidYMid meet">
<metadata>
Created by potrace 1.11, written by Peter Selinger 2001-2013
</metadata>
<g transform="translate(0.000000,450.000000) scale(0.100000,-0.100000)"
fill="#000000" stroke="none">
<path d="M0 2250 l0 -2250 2250 0 2250 0 0 2250 0 2250 -2250 0 -2250 0 0
-2250z m2058 1806 c83 -43 137 -116 168 -231 12 -44 24 -73 27 -65 3 8 15 47
26 85 34 117 103 201 185 223 42 12 142 0 185 -23 34 -17 74 -61 97 -105 14
-28 18 -59 19 -145 0 -60 -3 -125 -7 -142 -4 -18 -4 -33 0 -33 4 1 30 38 57
82 65 106 111 133 227 133 74 0 78 -1 112 -34 45 -44 76 -124 76 -199 0 -68
-32 -192 -63 -242 l-22 -35 30 19 c17 11 47 32 69 47 80 59 216 91 294 70 62
-17 98 -53 116 -115 31 -105 13 -236 -44 -329 -17 -27 -30 -52 -30 -56 0 -4
42 -15 93 -25 161 -30 244 -86 301 -202 25 -52 28 -65 24 -133 -9 -140 -79
-233 -193 -254 -15 -2 -6 -9 33 -26 63 -28 146 -115 163 -170 6 -21 10 -72 8
-113 -4 -63 -9 -81 -32 -112 -37 -48 -113 -86 -174 -87 l-48 0 25 -17 c71 -47
146 -159 156 -233 14 -104 -49 -197 -148 -219 -45 -10 -77 -9 -189 5 -74 9
-152 23 -174 30 -21 8 -41 13 -43 11 -1 -2 15 -25 38 -51 82 -94 146 -269 133
-361 -13 -98 -73 -145 -194 -152 -65 -4 -93 0 -166 23 -48 14 -107 38 -131 52
-24 13 -46 23 -48 20 -2 -2 6 -26 18 -53 33 -73 32 -200 -2 -268 -32 -64 -72
-87 -160 -94 -61 -4 -76 -1 -134 26 -36 17 -84 45 -106 63 -39 31 -130 157
-130 179 0 5 -4 10 -10 10 -5 0 -10 -16 -10 -35 0 -87 -49 -226 -98 -279 -81
-87 -233 -87 -314 0 -41 45 -69 107 -82 186 l-12 72 -21 -35 c-33 -52 -92
-105 -153 -135 -44 -22 -72 -29 -140 -32 -78 -4 -89 -2 -140 25 -42 22 -59 39
-78 75 -33 64 -38 145 -14 236 10 39 17 72 16 72 -2 0 -25 -13 -51 -28 -200
-118 -358 -124 -434 -19 -41 57 -52 105 -39 176 21 117 72 221 153 308 l41 45
-62 -32 c-134 -68 -273 -75 -392 -19 -131 61 -164 125 -123 244 20 59 93 136
146 156 48 17 47 29 -3 29 -51 0 -85 17 -131 67 -66 70 -84 110 -83 184 1 53
7 77 30 119 28 52 99 123 142 143 12 6 22 14 22 18 0 4 -25 19 -55 33 -68 31
-107 88 -125 180 -21 112 6 194 89 268 81 73 212 105 324 79 20 -5 37 -6 37
-3 0 3 -18 35 -40 72 -85 141 -105 285 -54 388 39 79 71 97 174 97 93 0 155
-20 238 -77 23 -16 42 -26 42 -23 0 3 -11 27 -24 53 -33 66 -50 145 -50 229 1
66 4 78 35 123 46 69 116 104 206 103 87 -1 141 -35 206 -128 l47 -69 0 95 c0
52 5 111 10 131 38 136 215 217 338 154z"/>
<path d="M2498 2905 c-6 -30 -2 -32 12 -6 6 11 6 22 1 25 -5 3 -11 -5 -13 -19z"/>
<path d="M2184 2885 c-11 -15 -18 -17 -31 -9 -13 8 -32 2 -82 -24 -52 -26 -70
-31 -83 -23 -15 9 -18 8 -18 -9 0 -11 7 -20 15 -20 17 0 20 -25 5 -35 -6 -4
-9 -14 -8 -23 2 -9 -7 -21 -19 -27 -13 -7 -32 -20 -43 -30 -20 -18 -21 -18
-32 12 -10 27 -14 30 -32 20 -12 -5 -27 -13 -34 -16 -7 -3 -21 -18 -30 -33
-15 -25 -15 -28 1 -46 22 -24 22 -48 0 -60 -10 -6 -16 -22 -16 -40 0 -27 -5
-32 -31 -38 -46 -10 -77 -34 -71 -54 8 -24 -19 -43 -52 -36 l-28 6 30 -16 c17
-9 40 -29 53 -44 22 -28 22 -30 7 -86 -18 -71 -18 -77 -2 -68 10 6 10 4 0 -7
-7 -7 -13 -21 -13 -30 0 -9 -10 -23 -22 -32 -13 -8 -38 -30 -56 -48 -30 -30
-32 -34 -15 -40 10 -3 40 2 66 12 41 15 46 15 35 2 -7 -9 -11 -28 -9 -42 2
-14 5 -35 6 -46 1 -11 3 -23 4 -27 0 -4 11 -7 23 -5 18 1 25 -6 34 -32 17 -52
70 -85 58 -36 -5 19 -2 25 10 25 28 0 32 -31 6 -50 -20 -15 -21 -18 -5 -24 13
-5 16 -15 13 -40 -2 -19 -1 -34 2 -33 3 1 28 -12 55 -28 l50 -30 -35 -6 -35
-5 30 -8 c17 -4 38 -12 48 -17 11 -6 47 -7 88 -3 75 7 125 -7 115 -33 -4 -10
7 -13 44 -13 27 0 65 -7 84 -16 40 -20 66 -13 66 16 0 15 7 20 25 20 14 0 28
7 31 15 5 12 15 14 43 9 20 -4 42 -12 50 -18 11 -8 15 -8 18 2 3 6 9 9 14 6 6
-3 19 2 29 11 11 10 34 21 52 24 26 6 33 12 31 29 -2 16 1 20 15 15 16 -6 16
-5 0 13 -23 26 -14 60 28 103 29 29 38 33 69 28 21 -3 33 -2 30 3 -3 5 11 12
33 16 l39 6 -8 47 c-12 71 -11 74 28 100 l37 24 -22 15 c-12 8 -22 20 -22 26
0 6 -9 18 -20 26 -23 16 -26 50 -7 69 10 10 7 11 -15 6 -22 -6 -28 -4 -28 9 0
9 6 16 13 15 27 -3 35 2 30 21 -3 11 -9 20 -14 20 -5 0 -4 9 3 20 8 13 16 16
22 10 12 -12 36 -13 36 -2 0 4 -11 19 -25 34 -28 31 -24 55 11 64 13 3 24 9
24 13 0 16 -13 19 -35 11 -27 -10 -39 7 -37 52 0 22 -5 28 -31 34 -63 13 -72
38 -31 91 19 24 21 33 10 33 -8 0 -18 -4 -21 -10 -9 -14 -41 -12 -43 3 0 6 -2
33 -3 59 -1 26 -5 45 -9 43 -4 -3 -10 2 -14 10 -3 8 -15 15 -26 15 -12 0 -30
5 -42 11 -21 11 -40 3 -20 -10 8 -5 6 -12 -8 -24 -24 -21 -31 -22 -24 -3 3 8
-3 16 -15 19 -12 3 -21 12 -21 20 0 19 31 31 41 16 4 -8 12 -8 24 -1 16 8 14
12 -16 33 -20 14 -35 34 -37 48 -3 33 -8 36 -37 23 -22 -10 -25 -9 -25 7 0 17
-6 19 -42 16 -24 -2 -45 -5 -48 -6 -12 -4 -46 4 -57 13 -6 5 -35 10 -63 11
-42 2 -55 -2 -66 -18z m37 -42 c2 -34 -3 -68 -12 -79 -6 -8 -5 -13 4 -17 19
-7 68 4 61 14 -3 5 0 9 5 9 6 0 11 -7 11 -15 0 -12 4 -13 18 -4 30 19 76 -1
80 -35 6 -45 27 -24 23 22 -2 30 1 42 11 42 23 0 38 -22 38 -54 1 -36 24 -71
40 -61 16 10 70 -15 70 -32 0 -9 6 -13 14 -10 22 9 58 -22 54 -46 -2 -12 -9
-21 -16 -19 -20 4 -25 -26 -8 -43 19 -20 21 -46 4 -64 -11 -11 -10 -13 4 -8
10 3 24 -1 33 -9 22 -22 19 -55 -5 -61 -17 -4 -18 -8 -8 -20 7 -8 21 -12 34
-9 28 7 41 -20 13 -29 -10 -4 -24 -15 -29 -26 -12 -20 -64 -27 -75 -9 -4 6
-13 2 -23 -10 -21 -26 -52 -17 -52 14 1 23 44 61 60 51 6 -3 10 -1 10 4 0 6
-4 11 -10 11 -5 0 -10 8 -10 18 0 11 -14 1 -45 -32 -45 -50 -67 -57 -45 -16
10 18 9 24 -1 31 -8 5 -18 9 -22 9 -5 0 -5 9 -2 20 8 25 -3 80 -16 80 -4 0 -6
-13 -2 -30 3 -19 1 -30 -6 -30 -6 0 -11 4 -11 10 0 5 -6 7 -14 4 -24 -9 -29
17 -7 32 17 12 19 19 10 35 -6 11 -8 27 -5 34 5 13 -20 30 -38 26 -18 -4 -37
23 -31 46 5 23 -8 32 -20 13 -3 -5 -18 -10 -32 -10 -21 0 -24 -2 -13 -15 7 -8
21 -15 31 -15 13 0 19 -7 19 -21 0 -18 -5 -20 -26 -16 -17 3 -28 0 -31 -10 -8
-21 -48 -63 -61 -63 -16 0 -24 31 -11 46 6 7 17 10 25 7 8 -3 14 0 14 6 0 6
-12 11 -26 11 -21 0 -25 4 -22 23 2 14 11 23 26 25 12 2 22 8 22 14 0 5 -7 8
-15 4 -8 -3 -21 1 -29 10 -15 15 -32 2 -21 -16 3 -5 3 -15 -1 -22 -4 -7 -8
-26 -8 -43 -1 -27 -4 -30 -31 -30 -16 0 -36 -6 -43 -12 -7 -7 -19 -13 -27 -13
-21 0 -28 -50 -10 -70 20 -22 6 -35 -47 -44 -38 -7 -48 -19 -28 -31 6 -4 18
-1 26 6 12 10 18 9 32 -5 15 -15 15 -18 2 -26 -9 -6 -16 -6 -18 0 -5 14 -29
13 -34 -1 -2 -6 -17 -11 -33 -10 -17 0 -40 0 -53 1 -33 0 -62 18 -62 38 -1 16
-1 16 -11 0 -11 -20 -44 -24 -54 -7 -11 16 4 59 19 59 8 0 21 -7 29 -15 14
-13 27 -11 27 7 0 4 -18 19 -39 34 -50 33 -58 51 -26 66 19 9 32 7 64 -9 40
-20 40 -20 26 0 -10 14 -11 27 -4 44 12 32 12 33 -10 33 -22 0 -31 18 -20 40
4 8 10 23 13 33 5 15 12 17 38 12 18 -4 35 -11 36 -16 5 -12 49 -12 56 0 3 5
-5 12 -19 15 -16 4 -25 13 -25 26 0 21 30 34 59 25 16 -5 22 3 35 50 11 34 22
55 31 55 8 0 15 -4 15 -9 0 -18 31 -20 60 -3 29 16 32 16 44 0 16 -22 26 -23
26 -4 0 7 -14 19 -31 26 -19 8 -28 18 -25 27 4 8 6 21 6 28 0 13 20 20 63 24
10 0 17 -6 18 -16z m69 8 c0 -5 11 -12 24 -15 22 -5 45 -46 26 -46 -5 0 -11 8
-13 18 -4 13 -5 11 -6 -6 -1 -19 -5 -21 -28 -16 -39 9 -51 22 -33 35 11 8 12
12 2 16 -6 2 -10 9 -6 14 7 12 34 12 34 0z m84 -337 c8 -21 -1 -34 -25 -34
-21 0 -25 20 -7 38 16 16 25 15 32 -4z m-67 -31 c4 -10 15 -24 25 -31 20 -14
16 -32 -8 -32 -8 0 -14 9 -14 21 0 17 -5 20 -25 17 -19 -4 -25 -1 -25 12 0 33
36 43 47 13z m-162 -53 c-9 -15 -35 -12 -35 3 0 7 5 18 12 25 9 9 14 9 21 -3
4 -8 5 -20 2 -25z m-55 6 c0 -29 -10 -38 -29 -27 -17 11 -5 51 15 51 8 0 14
-10 14 -24z m40 -60 c0 -8 -4 -18 -10 -21 -5 -3 -10 3 -10 14 0 12 5 21 10 21
6 0 10 -6 10 -14z m-60 -46 c0 -11 -7 -20 -15 -20 -15 0 -21 21 -8 33 12 13
23 7 23 -13z m353 -16 c-3 -8 -9 -14 -13 -14 -11 0 -21 30 -14 41 9 15 34 -10
27 -27z m-206 0 c-9 -9 -28 6 -21 18 4 6 10 6 17 -1 6 -6 8 -13 4 -17z m63 7
c0 -6 -4 -13 -10 -16 -5 -3 -10 1 -10 9 0 9 5 16 10 16 6 0 10 -4 10 -9z
m-159 -44 c-8 -8 -11 -5 -11 9 0 27 14 41 18 19 2 -9 -1 -22 -7 -28z m229 33
c0 -5 -4 -10 -10 -10 -5 0 -10 5 -10 10 0 6 5 10 10 10 6 0 10 -4 10 -10z
m-280 -51 c0 -6 -4 -7 -10 -4 -5 3 -10 11 -10 16 0 6 5 7 10 4 6 -3 10 -11 10
-16z m-201 -3 c7 -8 21 -12 31 -9 41 11 69 -49 36 -76 -7 -6 -11 -22 -9 -35 6
-29 -10 -40 -37 -26 -23 12 -27 50 -5 50 19 0 19 19 1 43 -13 17 -15 17 -24 2
-11 -20 -47 -13 -56 11 -15 39 37 72 63 40z m347 -13 c-10 -10 -19 5 -10 18 6
11 8 11 12 0 2 -7 1 -15 -2 -18z m222 -1 c4 -26 -22 -31 -32 -6 -10 26 -7 36
12 32 9 -2 18 -13 20 -26z m-150 0 c2 -7 -6 -12 -17 -12 -21 0 -27 11 -14 24
9 9 26 2 31 -12z m215 6 c12 -6 37 -11 56 -9 28 2 33 0 27 -14 -3 -9 -6 -24
-6 -32 0 -12 -7 -14 -27 -9 -16 4 -40 7 -54 6 -34 0 -49 18 -38 48 10 25 13
26 42 10z m152 -8 c3 -11 11 -20 16 -20 5 0 9 -7 9 -15 0 -11 -9 -14 -32 -12
-26 2 -34 7 -36 26 -3 21 11 40 30 41 4 0 10 -9 13 -20z m-651 4 c22 -9 21
-44 -2 -44 -21 0 -42 18 -42 37 0 14 18 17 44 7z m146 -1 c0 -5 -7 -17 -15
-27 -11 -14 -18 -17 -26 -9 -7 7 -5 15 6 27 17 17 35 21 35 9z m210 -19 c0 -8
-7 -14 -15 -14 -15 0 -21 21 -9 33 10 9 24 -2 24 -19z m-264 -35 c7 -12 -36
-52 -45 -43 -7 7 -10 37 -5 46 8 12 42 10 50 -3z m154 -4 c0 -8 -7 -15 -15
-15 -16 0 -20 12 -8 23 11 12 23 8 23 -8z m188 -12 c2 -13 -1 -23 -6 -23 -24
0 -42 14 -42 32 0 29 44 20 48 -9z m-238 5 c0 -7 -5 -20 -10 -28 -9 -13 -11
-13 -19 0 -6 9 -6 19 1 27 13 17 28 17 28 1z m-182 -30 c3 -21 -3 -28 -27 -36
-34 -12 -41 -8 -41 25 0 15 8 27 23 33 31 12 42 7 45 -22z m299 16 c1 -5 -2
-16 -7 -24 -12 -20 -33 0 -24 24 7 17 25 17 31 0z m-478 -8 c8 -10 9 -16 1
-21 -6 -4 -9 -14 -8 -22 2 -9 -3 -18 -9 -20 -7 -3 -13 3 -13 12 0 9 -4 13 -10
10 -6 -4 -10 7 -10 24 0 24 4 31 19 31 10 0 24 -6 30 -14z m678 0 c6 -12 17
-13 45 -7 20 5 39 6 42 3 11 -11 6 -40 -9 -52 -13 -11 -20 -9 -40 10 l-24 23
-28 -24 c-16 -13 -27 -31 -25 -39 3 -17 -34 -44 -48 -35 -18 11 -10 44 14 60
17 11 22 22 19 36 -9 33 38 54 54 25z m143 -37 c0 -10 -4 -19 -10 -19 -5 0
-10 12 -10 26 0 14 4 23 10 19 6 -3 10 -15 10 -26z m-523 -43 c-2 -6 -16 -12
-30 -14 -35 -4 -46 22 -21 49 l19 21 18 -23 c10 -12 16 -27 14 -33z m103 24
c0 -5 -7 -10 -15 -10 -8 0 -15 5 -15 10 0 6 7 10 15 10 8 0 15 -4 15 -10z m50
-26 c0 -8 -7 -14 -15 -14 -10 0 -15 10 -15 26 0 22 2 25 15 14 8 -7 15 -19 15
-26z m80 17 c0 -11 -4 -22 -9 -25 -11 -7 -20 14 -13 32 7 19 22 14 22 -7z
m-320 -6 c18 -22 7 -39 -27 -41 -30 -2 -30 -1 -16 27 16 33 25 36 43 14z m504
-33 c17 -33 9 -50 -24 -54 -28 -3 -36 16 -21 55 13 35 27 34 45 -1z m-599 -18
c0 -31 -19 -41 -45 -24 -13 9 -13 12 3 24 9 7 17 19 17 25 0 7 6 11 13 9 6 -3
12 -18 12 -34z m855 16 c8 -14 8 -20 0 -20 -12 0 -40 24 -40 34 0 15 30 4 40
-14z m-635 -30 c0 -29 -32 -41 -41 -16 -9 24 4 48 23 44 12 -2 18 -12 18 -28z
m175 5 c0 -32 -45 -49 -56 -20 -10 24 14 47 37 34 10 -5 19 -11 19 -14z m-534
-38 c-9 -47 -29 -63 -50 -42 -34 35 -4 105 36 84 16 -9 19 -17 14 -42z m-90
15 c-18 -18 -31 -10 -23 12 4 10 13 13 22 9 15 -5 15 -7 1 -21z m988 12 c9
-22 8 -24 -9 -18 -8 4 -15 12 -15 20 0 19 16 18 24 -2z m-607 -19 c7 -19 5
-22 -30 -30 -21 -6 -27 -4 -27 8 0 15 25 36 43 37 4 0 10 -7 14 -15z m150 -11
c15 -24 15 -28 2 -38 -9 -6 -18 -17 -20 -25 -4 -11 -8 -10 -22 4 -18 17 -16
46 5 73 14 16 15 16 35 -14z m148 -4 c-3 -5 -10 -10 -16 -10 -5 0 -9 5 -9 10
0 6 7 10 16 10 8 0 12 -4 9 -10z m-501 -29 c7 -10 -38 -61 -54 -61 -14 0 -13
43 2 58 14 14 44 16 52 3z m281 -32 c19 -37 16 -42 -19 -33 -18 4 -26 13 -26
28 0 45 23 48 45 5z m370 2 c9 -28 -4 -48 -30 -48 -32 0 -45 35 -19 54 25 18
42 16 49 -6z m53 1 c2 -7 -3 -12 -12 -12 -9 0 -16 7 -16 16 0 17 22 14 28 -4z
m-658 -3 c0 -6 -4 -18 -9 -28 -6 -10 -6 -23 0 -32 8 -12 11 -11 23 4 17 22 32
22 39 -2 9 -38 -36 -63 -53 -30 -6 11 -15 17 -21 13 -28 -17 -52 49 -27 74 15
15 48 16 48 1z m380 -9 c0 -11 -2 -20 -4 -20 -2 0 -11 -3 -20 -6 -19 -7 -22
16 -4 34 18 18 28 15 28 -8z m320 -55 c0 -8 -4 -15 -10 -15 -5 0 -10 7 -10 15
0 8 5 15 10 15 6 0 10 -7 10 -15z m-576 -82 c4 -11 1 -22 -8 -29 -9 -6 -13
-14 -9 -17 3 -4 1 -7 -5 -7 -16 0 -45 47 -37 60 10 16 52 12 59 -7z m351 7 c4
-6 11 -8 16 -5 5 4 9 1 9 -4 0 -6 -4 -11 -10 -11 -5 0 -10 -7 -10 -15 0 -8 -4
-15 -9 -15 -15 0 -33 29 -27 45 6 17 22 20 31 5z m156 -7 c-22 -38 -28 -43
-44 -37 -23 9 -21 34 2 34 11 0 23 5 26 10 11 18 26 11 16 -7z m-371 -20 c0
-10 -4 -24 -9 -31 -11 -18 -36 12 -27 33 8 21 36 19 36 -2z m110 -24 c0 -17
-4 -28 -10 -24 -5 3 -10 17 -10 31 0 13 5 24 10 24 6 0 10 -14 10 -31z"/>
<path d="M2075 2700 c-3 -5 -1 -10 4 -10 6 0 11 5 11 10 0 6 -2 10 -4 10 -3 0
-8 -4 -11 -10z"/>
<path d="M2075 2619 c8 -39 21 -56 32 -44 5 4 2 10 -4 12 -7 3 -13 15 -13 28
0 13 -5 27 -11 31 -8 4 -9 -4 -4 -27z"/>
<path d="M1993 2615 c-3 -9 -3 -18 -1 -21 3 -3 8 4 11 16 6 23 -1 27 -10 5z"/>
<path d="M2085 2539 c-4 -11 -4 -23 -2 -26 9 -8 27 7 27 22 0 23 -18 27 -25 4z"/>
<path d="M1895 2540 c3 -5 8 -10 11 -10 2 0 4 5 4 10 0 6 -5 10 -11 10 -5 0
-7 -4 -4 -10z"/>
<path d="M2560 2529 c0 -5 5 -7 10 -4 6 3 10 8 10 11 0 2 -4 4 -10 4 -5 0 -10
-5 -10 -11z"/>
<path d="M2518 2523 c-20 -5 -24 -23 -5 -23 17 0 41 17 31 22 -5 2 -17 3 -26
1z"/>
<path d="M2552 2446 c-15 -33 -11 -44 7 -22 7 8 11 23 9 32 -2 14 -6 11 -16
-10z"/>
<path d="M1900 2453 c1 -17 29 -45 39 -39 6 4 21 0 35 -9 15 -10 27 -12 30 -6
9 13 -33 41 -61 41 -13 0 -23 5 -23 10 0 6 -4 10 -10 10 -5 0 -10 -3 -10 -7z"/>
<path d="M1850 2388 c0 -8 11 -24 23 -37 19 -17 29 -20 48 -12 l24 9 -30 12
c-16 6 -38 19 -47 27 -15 14 -18 14 -18 1z"/>
<path d="M1930 2779 c0 -5 5 -7 10 -4 6 3 10 8 10 11 0 2 -4 4 -10 4 -5 0 -10
-5 -10 -11z"/>
<path d="M2776 2581 c-11 -4 -15 -10 -9 -14 5 -3 19 0 29 8 20 15 11 18 -20 6z"/>
<path d="M2850 2250 c0 -6 7 -10 15 -10 8 0 15 2 15 4 0 2 -7 6 -15 10 -8 3
-15 1 -15 -4z"/>
<path d="M2870 2200 c0 -5 5 -10 10 -10 6 0 10 5 10 10 0 6 -4 10 -10 10 -5 0
-10 -4 -10 -10z"/>
</g>
</svg>
